<svg xmlns="http://www.w3.org/2000/svg" viewBox="0 0 224 56">
  <defs>
    <linearGradient id="sky" x1="0" x2="0" y1="0" y2="1"><stop stop-color="#7f7568"/><stop offset=".52" stop-color="#4b4138"/><stop offset="1" stop-color="#171616"/></linearGradient>
    <filter id="grain"><feTurbulence baseFrequency=".86" numOctaves="3" seed="33"/><feColorMatrix type="saturate" values=".2"/><feComponentTransfer><feFuncA type="table" tableValues="0 .17"/></feComponentTransfer></filter>
  </defs>
  <rect width="224" height="56" fill="url(#sky)"/>
  <path d="M0 39h224v17H0z" fill="#211d1a"/>
  <rect x="2" y="22" width="38" height="24" fill="#5f4a3d"/>
  <rect x="45" y="11" width="33" height="35" fill="#8a6a52"/>
  <rect x="83" y="18" width="28" height="28" fill="#574239"/>
  <rect x="117" y="14" width="44" height="32" fill="#7e604e"/>
  <rect x="169" y="20" width="55" height="26" fill="#493833"/>
  <path d="M8 31h27M52 20h20M123 23h33M175 28h35" stroke="#b49370" stroke-width="2" opacity=".65"/>
  <path d="M47 46V29c0-8 7-14 15-14s15 6 15 14v17" fill="none" stroke="#332820" stroke-width="5"/>
  <path d="M102 46l19-16 41 1 17 15z" fill="#2d2824"/>
  <path d="M0 48c28-5 57-7 88-4 33 4 63 4 91-3 18-4 32-5 45-5v20H0z" fill="#151514" opacity=".86"/>
  <rect x="91" y="31" width="15" height="12" fill="#1d1714"/>
  <rect x="186" y="30" width="20" height="12" fill="#221916"/>
  <rect width="224" height="56" filter="url(#grain)"/>
  <rect width="224" height="56" fill="#000" opacity=".24"/>
</svg>
