<svg xmlns="http://www.w3.org/2000/svg" viewBox="0 0 640 180" role="img" aria-label="Militia map collection cover">
  <defs>
    <linearGradient id="bg" x1="0" x2="1" y1="0" y2="1">
      <stop offset="0" stop-color="#050606"/>
      <stop offset=".55" stop-color="#111315"/>
      <stop offset="1" stop-color="#4f573f"/>
    </linearGradient>
    <radialGradient id="pulse" cx=".18" cy=".25" r=".85">
      <stop offset="0" stop-color="#9ca36a" stop-opacity=".42"/>
      <stop offset="1" stop-color="#9ca36a" stop-opacity="0"/>
    </radialGradient>
    <filter id="soft">
      <feGaussianBlur stdDeviation="7"/>
    </filter>
  </defs>
  <rect width="640" height="180" fill="url(#bg)"/>
  <rect width="640" height="180" fill="url(#pulse)"/>
  <path d="M-20 145 C 110 98, 166 170, 294 124 S 500 70, 668 106" fill="none" stroke="#9ca36a" stroke-width="38" stroke-opacity=".08" filter="url(#soft)"/>
  <g opacity=".95">
    <polygon points="62,38 136,20 195,55 168,104 83,98" fill="#9ca36a" opacity=".20" stroke="#9ca36a" stroke-opacity=".46"/>
    <polygon points="398,42 520,28 572,72 510,125 406,110" fill="#c78f57" opacity=".18" stroke="#c78f57" stroke-opacity=".42"/>
    <path d="M205 76 C 238 76, 238 114, 272 114" fill="none" stroke="#9ca36a" stroke-width="6" stroke-linecap="round" opacity=".38"/><path d="M268 107 C 230 107, 230 86, 193 86" fill="none" stroke="#9ca36a" stroke-width="8" stroke-linecap="round" opacity=".38"/><path d="M474 90 C 517 90, 517 104, 561 104" fill="none" stroke="#9ca36a" stroke-width="8" stroke-linecap="round" opacity=".38"/><path d="M340 71 C 304 71, 304 113, 268 113" fill="none" stroke="#9ca36a" stroke-width="5" stroke-linecap="round" opacity=".38"/><path d="M461 78 C 266 78, 266 59, 72 59" fill="none" stroke="#9ca36a" stroke-width="6" stroke-linecap="round" opacity=".38"/>
    <rect x="260" y="111" width="86" height="38" rx="5" transform="rotate(2.01 303 130)" fill="#9ca36a" opacity="0.3351548643037677" stroke="#9ca36a" stroke-opacity=".24"/><rect x="331" y="28" width="54" height="38" rx="5" transform="rotate(-3.58 358 47)" fill="#4f573f" opacity="0.25533978693187237" stroke="#9ca36a" stroke-opacity=".24"/><rect x="281" y="74" width="122" height="46" rx="5" transform="rotate(2.33 342 97)" fill="#c78f57" opacity="0.3287161910533905" stroke="#9ca36a" stroke-opacity=".24"/><rect x="426" y="24" width="92" height="32" rx="5" transform="rotate(-2.26 472 40)" fill="#9ca36a" opacity="0.37321755062788725" stroke="#9ca36a" stroke-opacity=".24"/><rect x="186" y="99" width="109" height="38" rx="5" transform="rotate(-3.35 240.5 118)" fill="#4f573f" opacity="0.29264871384948493" stroke="#9ca36a" stroke-opacity=".24"/><rect x="338" y="36" width="128" height="34" rx="5" transform="rotate(1.89 402 53)" fill="#c78f57" opacity="0.3653679783269763" stroke="#9ca36a" stroke-opacity=".24"/><rect x="160" y="103" width="104" height="32" rx="5" transform="rotate(-3.07 212 119)" fill="#9ca36a" opacity="0.23828423257917167" stroke="#9ca36a" stroke-opacity=".24"/>
  </g>
  <g font-family="Rajdhani, Teko, Arial, sans-serif" text-anchor="start">
    <text x="35" y="151" fill="#f7efe4" font-size="44" font-weight="800" letter-spacing="4">MILITIA</text>
    <text x="38" y="166" fill="#9ca36a" font-size="13" font-weight="700" letter-spacing="3">TACTICAL MAP COLLECTION</text>
  </g>
  <circle cx="78" cy="63" r="2" fill="#f4efe4" opacity="0.3394394425116479"/><circle cx="463" cy="133" r="2" fill="#f4efe4" opacity="0.16002382254227995"/><circle cx="48" cy="21" r="1" fill="#f4efe4" opacity="0.38062947999686003"/><circle cx="75" cy="83" r="1" fill="#f4efe4" opacity="0.37527646649628876"/><circle cx="581" cy="89" r="2" fill="#f4efe4" opacity="0.30202357441186906"/><circle cx="322" cy="73" r="1" fill="#f4efe4" opacity="0.3663012551143765"/><circle cx="499" cy="51" r="2" fill="#f4efe4" opacity="0.3576495976559818"/><circle cx="207" cy="43" r="1" fill="#f4efe4" opacity="0.27693893326446417"/><circle cx="576" cy="31" r="2" fill="#f4efe4" opacity="0.2233204692043364"/><circle cx="163" cy="24" r="2" fill="#f4efe4" opacity="0.2668673469312489"/><circle cx="284" cy="79" r="2" fill="#f4efe4" opacity="0.37698981422930955"/><circle cx="580" cy="92" r="2" fill="#f4efe4" opacity="0.16442263873293997"/><circle cx="489" cy="49" r="1" fill="#f4efe4" opacity="0.27417449750006195"/><circle cx="67" cy="90" r="2" fill="#f4efe4" opacity="0.16911056101322175"/><circle cx="202" cy="117" r="1" fill="#f4efe4" opacity="0.17222973987460136"/><circle cx="485" cy="132" r="1" fill="#f4efe4" opacity="0.27145481802523136"/><circle cx="318" cy="23" r="1" fill="#f4efe4" opacity="0.3772612184658647"/><circle cx="370" cy="26" r="2" fill="#f4efe4" opacity="0.33651043942198156"/>
  <rect x="1" y="1" width="638" height="178" fill="none" stroke="#9ca36a" stroke-opacity=".25"/>
</svg>
